HIERARCHY
ROOT Hips
{
  OFFSET 3.13124 94.3669 -3.18751
  CHANNELS  6 Xposition Yposition Zposition Zrotation Xrotation Yrotation
  JOINT LeftUpLeg
  {
    OFFSET 8.64259 1.95398 -2.38835
    CHANNELS 3 Zrotation Xrotation Yrotation
    JOINT LeftLeg
    {
      OFFSET 43.7702 0 0
      CHANNELS 3 Zrotation Xrotation Yrotation
      JOINT LeftFoot
      {
        OFFSET 40.6238 0 0
        CHANNELS 3 Zrotation Xrotation Yrotation
        JOINT LeftToeBase
        {
          OFFSET 12.7242 0 0
          CHANNELS 3 Zrotation Xrotation Yrotation
          End Site
          {
            OFFSET 0 0 0
          }
        }
      }
    }
  }
  JOINT RightUpLeg
  {
    OFFSET -8.2249 1.95398 -2.59336
    CHANNELS 3 Zrotation Xrotation Yrotation
    JOINT RightLeg
    {
      OFFSET 43.5653 0 0
      CHANNELS 3 Zrotation Xrotation Yrotation
      JOINT RightFoot
      {
        OFFSET 40.6238 0 0
        CHANNELS 3 Zrotation Xrotation Yrotation
        JOINT RightToeBase
        {
          OFFSET 12.7242 0 0
          CHANNELS 3 Zrotation Xrotation Yrotation
          End Site
          {
            OFFSET 0 0 0
          }
        }
      }
    }
  }
  JOINT Spine
  {
    OFFSET 0.165834 0.87714 6.61349
    CHANNELS 3 Zrotation Xrotation Yrotation
    JOINT Spine1
    {
      OFFSET 7.38962 1.71661e-005 0
      CHANNELS 3 Zrotation Xrotation Yrotation
      JOINT Spine2
      {
        OFFSET 11.9445 1.14441e-005 0
        CHANNELS 3 Zrotation Xrotation Yrotation
        JOINT Spine3
        {
          OFFSET 14.7254 4.19617e-005 0
          CHANNELS 3 Zrotation Xrotation Yrotation
          JOINT Spine4
          {
            OFFSET 10.9679 0 0
            CHANNELS 3 Zrotation Xrotation Yrotation
            JOINT RightShoulder
            {
              OFFSET 2.46616 -1.6653 3.69651
              CHANNELS 3 Zrotation Xrotation Yrotation
              JOINT RightArm
              {
                OFFSET 13.0012 0 0
                CHANNELS 3 Zrotation Xrotation Yrotation
                JOINT RightForeArm
                {
                  OFFSET 28.7848 1.52588e-005 0
                  CHANNELS 3 Zrotation Xrotation Yrotation
                  JOINT RightHand
                  {
                    OFFSET 26.5688 1.52588e-005 0
                    CHANNELS 3 Zrotation Xrotation Yrotation
                    End Site
                    {
                      OFFSET 0 0 0
                    }
                  }
                }
              }
            }
            JOINT LeftShoulder
            {
              OFFSET 2.38034 -1.29275 -3.75231
              CHANNELS 3 Zrotation Xrotation Yrotation
              JOINT LeftArm
              {
                OFFSET 16.3182 6.10352e-005 0
                CHANNELS 3 Zrotation Xrotation Yrotation
                JOINT LeftForeArm
                {
                  OFFSET 27.0901 0 0
                  CHANNELS 3 Zrotation Xrotation Yrotation
                  JOINT LeftHand
                  {
                    OFFSET 24.5451 1.52588e-005 0
                    CHANNELS 3 Zrotation Xrotation Yrotation
                    End Site
                    {
                      OFFSET 0 0 0
                    }
                  }
                }
              }
            }
            JOINT Neck
            {
              OFFSET 5.0226 -0.0266342 0
              CHANNELS 3 Zrotation Xrotation Yrotation
              JOINT Head
              {
                OFFSET 6.69363 2.86102e-005 0
                CHANNELS 3 Zrotation Xrotation Yrotation
                End Site
                {
                  OFFSET 0 0 0
                }
              }
            }
          }
        }
      }
    }
  }
}
MOTION
Frames:	7
Frame Time:	0.0333333
-0.801326 91.833 50.5322 66.6721 -62.7124 77.5737 -168.968 24.5936 108.1 -31.5817 -7.96407 2.2212 70.9666 1.0598 0.629903 28.7808 5.55632e-006 5.01685e-006 179.022 26.7003 85.7139 -29.0794 -28.1837 -1.68663 66.9489 -1.76218 -0.907933 28.7808 1.39294e-005 1.78738e-005 -0.986046 6.03 -92.3477 14.7292 -3.11926 -4.50582 3.05467 -3.31472 -4.36453 -19.4282 -1.62169 -5.23268 0.58447 -1.6217 -5.2327 116.511 -52.5638 -60.4802 11.1491 20.7634 5.17757 -0.267065 11.2164 -17.6439 -7.05713 -0.343798 0.500085 -88.7789 -34.0165 76.8309 -43.8799 2.8604 -20.4033 14.118 30.0875 -25.1233 8.85396 -2.53284 -28.8476 45.8205 3.30542 -34.3797 -36.3831 8.47148 45.2099 
0.0991161 91.5919 49.9752 67.5524 -62.613 78.3853 -169.299 25.2414 107.572 -33.829 -8.03898 2.29666 72.1865 1.42048 0.820035 28.7808 5.55632e-006 5.01685e-006 178.995 26.6196 84.9421 -29.5942 -28.3556 -1.68977 67.0785 -1.63985 -0.846066 28.7808 1.39294e-005 1.78738e-005 -0.921751 6.15563 -92.4325 14.4717 -3.03762 -4.78342 2.79598 -3.24501 -4.64544 -19.6774 -1.46208 -5.47319 0.335235 -1.46209 -5.47323 116.14 -52.8322 -61.0963 11.8613 20.2068 1.97832 -1.23362 10.4836 -13.6295 -5.01357 -0.0860035 -3.52362 -89.648 -33.8779 75.2189 -44.075 2.98927 -21.5663 14.1206 32.0034 -24.0568 7.93224 -2.25495 -28.0351 46.5196 3.07295 -34.933 -35.5054 9.47541 44.3268 
1.04343 91.2855 49.3049 68.2889 -62.3666 79.1629 -169.772 25.9845 106.958 -36.009 -8.27052 2.5417 73.6797 1.52049 0.883656 28.7808 5.55632e-006 5.01685e-006 178.932 26.3129 84.1672 -29.4232 -28.4261 -1.69098 67.4611 -0.973565 -0.499457 28.7808 1.39294e-005 1.78738e-005 -0.886719 6.2895 -92.4883 14.198 -2.98544 -4.9993 2.52143 -3.20233 -4.86344 -19.9444 -1.3477 -5.66329 0.0682931 -1.34771 -5.66332 115.782 -53.6451 -61.8171 13.1421 19.0559 -4.84447 -2.91483 8.5696 -4.98309 -4.51065 0.0839768 -8.45677 -90.3673 -33.2847 73.7334 -44.351 3.37305 -21.9856 15.037 33.7578 -24.6657 6.94747 -1.9071 -26.293 47.2446 2.17534 -36.6728 -34.82 10.2582 44.2703 
2.08874 90.961 48.5129 69.109 -62.2587 79.8404 -170.295 26.7674 106.157 -38.5256 -8.76078 2.72953 74.7019 1.54374 0.902869 28.7808 5.55632e-006 5.01685e-006 178.857 26.0218 83.1451 -29.254 -28.6698 -1.69122 67.7424 -0.191355 -0.0980587 28.7808 1.39294e-005 1.78738e-005 -0.821606 6.44044 -92.5358 13.8896 -2.87922 -5.293 2.21157 -3.10908 -5.16158 -20.2432 -1.15854 -5.91142 -0.230566 -1.15856 -5.91145 114.966 -54.0715 -63.1069 14.415 18.765 -7.48776 -3.15841 2.80978 -4.92908 -3.43781 0.0720715 -9.06382 -91.2169 -33.9036 72.3936 -44.4091 3.25257 -23.3897 14.6127 36.2801 -22.8259 6.56664 -1.88856 -27.0423 48.352 2.12435 -36.3488 -33.5864 11.5297 42.1193 
3.2024 90.5396 47.5045 69.5688 -62.2997 80.1541 -170.945 27.8341 105.203 -41.3361 -9.64494 2.80919 75.7806 1.78672 1.01965 28.7808 5.55632e-006 5.01685e-006 178.797 26.1138 81.9588 -29.1957 -29.3931 -1.72226 67.9352 0.581484 0.296637 28.7808 1.39294e-005 1.78738e-005 -0.741998 6.57712 -92.5598 13.6133 -2.72555 -5.52498 1.934 -2.96573 -5.40016 -20.5114 -0.942572 -6.08656 -0.498703 -0.942581 -6.08659 113.999 -54.9543 -64.6986 15.29 18.5766 -11.0964 -3.27191 0.0736422 -4.91117 -0.105903 -0.0455675 -9.28957 -92.088 -34.1417 70.9153 -44.6395 3.35279 -23.9383 14.7121 38.0177 -22.2698 6.38705 -1.84822 -27.0203 49.1149 1.58806 -37.1023 -32.5028 12.4992 41.0236 
4.41438 90.0293 46.3083 69.9755 -61.8883 80.4498 -171.849 29.3062 103.975 -44.3732 -10.399 3.14874 76.7238 1.97722 1.10862 28.7808 5.55632e-006 5.01685e-006 178.741 26.2772 80.5878 -29.1097 -29.6355 -1.72453 68.1907 1.56603 0.794121 28.7808 1.39294e-005 1.78738e-005 -0.683514 6.73389 -92.6045 13.2913 -2.63189 -5.81011 1.61053 -2.88464 -5.68918 -20.8237 -0.76803 -6.33035 -0.811083 -0.768039 -6.33038 112.633 -55.5941 -66.7932 16.7393 18.1046 -15.9036 -3.39311 -2.86057 -4.89766 1.18606 -0.0742277 -7.88338 -92.8093 -34.8623 69.8991 -45.1038 3.34731 -25.8619 13.3843 41.1226 -19.2471 8.23385 -2.28379 -27.6748 50.9651 1.36234 -36.4587 -31.4476 13.6044 38.5366 
5.72428 89.4385 44.9395 70.797 -61.1456 80.9976 -172.962 31.0804 102.358 -47.9248 -10.9718 3.83207 76.9421 2.17251 1.19045 28.7808 5.55632e-006 5.01685e-006 178.695 26.3373 78.8843 -29.1125 -29.6469 -1.70333 68.5013 2.71321 1.36159 28.7808 1.39294e-005 1.78738e-005 -0.726079 6.9625 -92.4679 12.832 -2.61086 -5.88263 1.15089 -2.86687 -5.76258 -21.2805 -0.725919 -6.39307 -1.26782 -0.725925 -6.3931 111.247 -56.8408 -68.9811 17.4505 17.8437 -19.1898 -3.78549 -12.3395 -4.89879 6.15025 -0.596205 -14.7 -92.7664 -34.0642 69.6887 -45.7177 4.3409 -26.2028 14.2946 41.344 -20.4876 8.22881 -2.28507 -27.6947 54.1301 -0.350809 -37.9581 -32.1215 14.333 37.0338 
